<svg width="16" height="14" viewBox="0 0 16 14" fill="none" xmlns="http://www.w3.org/2000/svg">
<path d="M9.63237 13.616L12.0324 3.872L12.6084 6.656C11.6804 6.656 10.9124 6.368 10.3044 5.792C9.69637 5.216 9.39238 4.448 9.39238 3.488C9.39238 2.528 9.69637 1.744 10.3044 1.136C10.9124 0.528 11.6644 0.224 12.5604 0.224C13.4884 0.224 14.2564 0.528 14.8644 1.136C15.4724 1.776 15.7764 2.56 15.7764 3.488C15.7764 3.808 15.7604 4.112 15.7284 4.4C15.6644 4.688 15.5684 5.024 15.4404 5.408C15.3124 5.824 15.1364 6.32 14.9124 6.896L12.6564 13.616H9.63237ZM0.560374 13.616L2.96037 3.872L3.53637 6.656C2.60837 6.656 1.84037 6.368 1.23237 5.792C0.624373 5.216 0.320373 4.448 0.320373 3.488C0.320373 2.528 0.624373 1.744 1.23237 1.136C1.84037 0.528 2.59237 0.224 3.48837 0.224C4.41637 0.224 5.18437 0.528 5.79237 1.136C6.40037 1.776 6.70437 2.56 6.70437 3.488C6.70437 3.808 6.68837 4.112 6.65637 4.4C6.59237 4.688 6.49637 5.024 6.36837 5.408C6.24037 5.824 6.06437 6.32 5.84037 6.896L3.58437 13.616H0.560374Z" fill="#9A9A9A"/>
</svg>
