<svg width="1389" height="596" viewBox="0 0 1389 596" fill="none" xmlns="http://www.w3.org/2000/svg">
<rect width="1389" height="596" rx="15" fill="#074E84"/>
<ellipse cx="228" cy="298" rx="182" ry="179" fill="#FFD94F"/>
<ellipse cx="1184" cy="298" rx="182" ry="179" fill="#FFD94F"/>
<ellipse cx="694" cy="298" rx="182" ry="179" fill="#FFD94F"/>
<path d="M587.926 226H581.176L593.466 191.091H601.273L613.58 226H606.83L597.506 198.25H597.233L587.926 226ZM588.148 212.312H606.557V217.392H588.148V212.312ZM646.418 202.869H640.043C639.861 201.824 639.526 200.898 639.037 200.091C638.548 199.273 637.94 198.58 637.213 198.011C636.486 197.443 635.656 197.017 634.724 196.733C633.804 196.438 632.81 196.29 631.741 196.29C629.844 196.29 628.162 196.767 626.696 197.722C625.23 198.665 624.082 200.051 623.253 201.881C622.423 203.699 622.009 205.92 622.009 208.545C622.009 211.216 622.423 213.466 623.253 215.295C624.094 217.114 625.241 218.489 626.696 219.42C628.162 220.341 629.838 220.801 631.724 220.801C632.77 220.801 633.747 220.665 634.656 220.392C635.577 220.108 636.401 219.693 637.128 219.148C637.866 218.602 638.486 217.932 638.986 217.136C639.497 216.341 639.849 215.432 640.043 214.409L646.418 214.443C646.179 216.102 645.662 217.659 644.866 219.114C644.082 220.568 643.054 221.852 641.781 222.966C640.509 224.068 639.02 224.932 637.315 225.557C635.611 226.17 633.719 226.477 631.639 226.477C628.571 226.477 625.832 225.767 623.423 224.347C621.014 222.926 619.116 220.875 617.73 218.193C616.344 215.511 615.651 212.295 615.651 208.545C615.651 204.784 616.349 201.568 617.747 198.898C619.145 196.216 621.048 194.165 623.457 192.744C625.866 191.324 628.594 190.614 631.639 190.614C633.582 190.614 635.389 190.886 637.06 191.432C638.73 191.977 640.219 192.778 641.526 193.835C642.832 194.881 643.906 196.165 644.747 197.688C645.599 199.199 646.156 200.926 646.418 202.869ZM674.214 191.091H680.538V213.898C680.538 216.398 679.947 218.597 678.766 220.494C677.595 222.392 675.947 223.875 673.822 224.943C671.697 226 669.214 226.528 666.374 226.528C663.521 226.528 661.033 226 658.908 224.943C656.783 223.875 655.135 222.392 653.964 220.494C652.794 218.597 652.209 216.398 652.209 213.898V191.091H658.533V213.369C658.533 214.824 658.851 216.119 659.487 217.256C660.135 218.392 661.044 219.284 662.214 219.932C663.385 220.568 664.771 220.886 666.374 220.886C667.976 220.886 669.362 220.568 670.533 219.932C671.714 219.284 672.624 218.392 673.26 217.256C673.896 216.119 674.214 214.824 674.214 213.369V191.091ZM687.412 191.091H695.151L705.514 216.386H705.923L716.287 191.091H724.026V226H717.957V202.017H717.634L707.986 225.898H703.452L693.804 201.966H693.48V226H687.412V191.091ZM752.918 191.091H759.241V213.898C759.241 216.398 758.651 218.597 757.469 220.494C756.298 222.392 754.651 223.875 752.526 224.943C750.401 226 747.918 226.528 745.077 226.528C742.224 226.528 739.736 226 737.611 224.943C735.486 223.875 733.838 222.392 732.668 220.494C731.497 218.597 730.912 216.398 730.912 213.898V191.091H737.236V213.369C737.236 214.824 737.554 216.119 738.19 217.256C738.838 218.392 739.747 219.284 740.918 219.932C742.088 220.568 743.474 220.886 745.077 220.886C746.679 220.886 748.065 220.568 749.236 219.932C750.418 219.284 751.327 218.392 751.963 217.256C752.599 216.119 752.918 214.824 752.918 213.369V191.091ZM766.115 226V191.091H772.439V220.699H787.814V226H766.115ZM793.303 226V191.091H816.007V196.392H799.626V205.869H814.831V211.17H799.626V220.699H816.143V226H793.303Z" fill="white"/>
<path d="M141.926 226H135.176L147.466 191.091H155.273L167.58 226H160.83L151.506 198.25H151.233L141.926 226ZM142.148 212.312H160.557V217.392H142.148V212.312ZM172.864 191.091L181.949 218.568H182.307L191.375 191.091H198.33L186.023 226H178.216L165.926 191.091H172.864ZM203.332 226H196.582L208.872 191.091H216.679L228.986 226H222.236L212.912 198.25H212.639L203.332 226ZM203.554 212.312H221.963V217.392H203.554V212.312ZM233.584 226V191.091H239.908V220.699H255.283V226H233.584ZM267.095 191.091V226H260.771V191.091H267.095ZM273.943 226V191.091H296.648V196.392H280.267V205.869H295.472V211.17H280.267V220.699H296.784V226H273.943Z" fill="white"/>
<path d="M1067.44 226V191.091H1080.53C1083.22 191.091 1085.47 191.557 1087.28 192.489C1089.11 193.42 1090.49 194.727 1091.43 196.409C1092.37 198.08 1092.84 200.028 1092.84 202.256C1092.84 204.494 1092.36 206.437 1091.41 208.085C1090.47 209.722 1089.07 210.989 1087.23 211.886C1085.39 212.773 1083.13 213.216 1080.45 213.216H1071.12V207.966H1079.6C1081.16 207.966 1082.45 207.75 1083.45 207.318C1084.45 206.875 1085.19 206.233 1085.66 205.392C1086.15 204.54 1086.4 203.494 1086.4 202.256C1086.4 201.017 1086.15 199.96 1085.66 199.085C1085.18 198.199 1084.43 197.528 1083.43 197.074C1082.43 196.608 1081.14 196.375 1079.56 196.375H1073.77V226H1067.44ZM1085.48 210.182L1094.12 226H1087.06L1078.57 210.182H1085.48ZM1098.66 226V191.091H1121.37V196.392H1104.99V205.869H1120.19V211.17H1104.99V220.699H1121.5V226H1098.66ZM1146.79 200.688C1146.63 199.199 1145.96 198.04 1144.78 197.21C1143.61 196.381 1142.09 195.966 1140.21 195.966C1138.89 195.966 1137.76 196.165 1136.82 196.562C1135.88 196.96 1135.15 197.5 1134.65 198.182C1134.15 198.864 1133.9 199.642 1133.89 200.517C1133.89 201.244 1134.05 201.875 1134.38 202.409C1134.72 202.943 1135.18 203.398 1135.76 203.773C1136.34 204.136 1136.98 204.443 1137.69 204.693C1138.39 204.943 1139.1 205.153 1139.82 205.324L1143.09 206.142C1144.41 206.449 1145.68 206.864 1146.89 207.386C1148.12 207.909 1149.22 208.568 1150.18 209.364C1151.16 210.159 1151.93 211.119 1152.5 212.244C1153.07 213.369 1153.35 214.687 1153.35 216.199C1153.35 218.244 1152.83 220.045 1151.78 221.602C1150.74 223.148 1149.23 224.358 1147.25 225.233C1145.28 226.097 1142.9 226.528 1140.11 226.528C1137.39 226.528 1135.03 226.108 1133.03 225.267C1131.05 224.426 1129.49 223.199 1128.36 221.585C1127.25 219.972 1126.65 218.006 1126.56 215.688H1132.78C1132.87 216.903 1133.24 217.915 1133.9 218.722C1134.56 219.528 1135.42 220.131 1136.48 220.528C1137.55 220.926 1138.74 221.125 1140.06 221.125C1141.43 221.125 1142.64 220.92 1143.67 220.511C1144.72 220.091 1145.53 219.511 1146.12 218.773C1146.72 218.023 1147.02 217.148 1147.03 216.148C1147.02 215.239 1146.75 214.489 1146.23 213.898C1145.7 213.295 1144.97 212.795 1144.03 212.398C1143.1 211.989 1142.01 211.625 1140.76 211.307L1136.78 210.284C1133.91 209.545 1131.64 208.426 1129.97 206.926C1128.31 205.415 1127.48 203.409 1127.48 200.909C1127.48 198.852 1128.03 197.051 1129.15 195.506C1130.27 193.96 1131.8 192.761 1133.73 191.909C1135.66 191.045 1137.85 190.614 1140.3 190.614C1142.77 190.614 1144.94 191.045 1146.81 191.909C1148.68 192.761 1150.15 193.949 1151.22 195.472C1152.29 196.983 1152.84 198.722 1152.88 200.688H1146.79ZM1182.38 202.239C1182.09 201.318 1181.7 200.494 1181.2 199.767C1180.71 199.028 1180.12 198.398 1179.43 197.875C1178.75 197.352 1177.96 196.96 1177.08 196.699C1176.19 196.426 1175.22 196.29 1174.18 196.29C1172.3 196.29 1170.63 196.761 1169.17 197.705C1167.7 198.648 1166.55 200.034 1165.71 201.864C1164.88 203.682 1164.46 205.898 1164.46 208.511C1164.46 211.148 1164.88 213.381 1165.71 215.21C1166.54 217.04 1167.69 218.432 1169.17 219.386C1170.64 220.33 1172.36 220.801 1174.31 220.801C1176.09 220.801 1177.62 220.46 1178.92 219.778C1180.22 219.097 1181.23 218.131 1181.93 216.881C1182.64 215.619 1182.99 214.142 1182.99 212.449L1184.42 212.67H1174.94V207.727H1189.11V211.92C1189.11 214.909 1188.47 217.494 1187.2 219.676C1185.93 221.858 1184.18 223.54 1181.95 224.722C1179.72 225.892 1177.17 226.477 1174.28 226.477C1171.06 226.477 1168.24 225.756 1165.81 224.312C1163.39 222.858 1161.5 220.795 1160.13 218.125C1158.78 215.443 1158.1 212.261 1158.1 208.58C1158.1 205.761 1158.5 203.244 1159.3 201.028C1160.1 198.812 1161.23 196.932 1162.67 195.386C1164.12 193.83 1165.81 192.648 1167.75 191.841C1169.69 191.023 1171.81 190.614 1174.09 190.614C1176.02 190.614 1177.83 190.898 1179.5 191.466C1181.17 192.023 1182.65 192.818 1183.94 193.852C1185.25 194.886 1186.33 196.114 1187.17 197.534C1188.01 198.955 1188.56 200.523 1188.82 202.239H1182.38ZM1198.63 226H1191.88L1204.17 191.091H1211.98L1224.28 226H1217.53L1208.21 198.25H1207.94L1198.63 226ZM1198.85 212.312H1217.26V217.392H1198.85V212.312ZM1223.13 196.392V191.091H1250.98V196.392H1240.19V226H1233.92V196.392H1223.13ZM1256.61 226H1249.86L1262.15 191.091H1269.96L1282.27 226H1275.52L1266.19 198.25H1265.92L1256.61 226ZM1256.84 212.312H1275.24V217.392H1256.84V212.312ZM1286.87 226V191.091H1299.96C1302.64 191.091 1304.89 191.557 1306.71 192.489C1308.54 193.42 1309.92 194.727 1310.85 196.409C1311.79 198.08 1312.26 200.028 1312.26 202.256C1312.26 204.494 1311.79 206.437 1310.83 208.085C1309.89 209.722 1308.5 210.989 1306.65 211.886C1304.81 212.773 1302.55 213.216 1299.87 213.216H1290.55V207.966H1299.02C1300.59 207.966 1301.87 207.75 1302.87 207.318C1303.87 206.875 1304.61 206.233 1305.09 205.392C1305.58 204.54 1305.82 203.494 1305.82 202.256C1305.82 201.017 1305.58 199.96 1305.09 199.085C1304.6 198.199 1303.85 197.528 1302.85 197.074C1301.85 196.608 1300.56 196.375 1298.98 196.375H1293.19V226H1286.87ZM1304.9 210.182L1313.54 226H1306.48L1298 210.182H1304.9Z" fill="white"/>
<path d="M501.721 299.813C502.723 298.862 502.764 297.28 501.813 296.279L486.322 279.961C485.371 278.96 483.789 278.919 482.787 279.869C481.786 280.82 481.745 282.402 482.695 283.404L496.466 297.908L481.961 311.678C480.96 312.629 480.919 314.211 481.869 315.213C482.82 316.214 484.402 316.255 485.404 315.305L501.721 299.813ZM422.935 298.499L499.935 300.499L500.065 295.501L423.065 293.501L422.935 298.499Z" fill="white"/>
<path d="M977.724 297.81C978.724 296.858 978.763 295.276 977.81 294.276L962.293 277.983C961.341 276.983 959.758 276.944 958.759 277.897C957.759 278.849 957.72 280.431 958.672 281.431L972.466 295.914L957.983 309.707C956.983 310.659 956.944 312.242 957.897 313.241C958.849 314.241 960.431 314.28 961.431 313.328L977.724 297.81ZM893.939 296.499L975.939 298.499L976.061 293.501L894.061 291.501L893.939 296.499Z" fill="white"/>
</svg>
