<svg width="236" height="86" viewBox="0 0 236 86" fill="none" xmlns="http://www.w3.org/2000/svg">
<path d="M67.0341 31H61.7614L69.7955 7.72727H76.1364L84.1591 31H78.8864L73.0568 13.0455H72.875L67.0341 31ZM66.7045 21.8523H79.1591V25.6932H66.7045V21.8523ZM100.955 13.5455L94.8523 31H89.3977L83.2955 13.5455H88.4091L92.0341 26.0341H92.2159L95.8295 13.5455H100.955ZM107.94 31.3295C106.827 31.3295 105.834 31.1364 104.963 30.75C104.092 30.3561 103.402 29.7765 102.895 29.0114C102.395 28.2386 102.145 27.2765 102.145 26.125C102.145 25.1553 102.323 24.3409 102.679 23.6818C103.035 23.0227 103.52 22.4924 104.134 22.0909C104.747 21.6894 105.444 21.3864 106.224 21.1818C107.012 20.9773 107.838 20.8333 108.702 20.75C109.717 20.6439 110.535 20.5455 111.156 20.4545C111.777 20.3561 112.228 20.2121 112.509 20.0227C112.789 19.8333 112.929 19.553 112.929 19.1818V19.1136C112.929 18.3939 112.702 17.8371 112.247 17.4432C111.8 17.0492 111.164 16.8523 110.338 16.8523C109.467 16.8523 108.774 17.0455 108.259 17.4318C107.743 17.8106 107.402 18.2879 107.236 18.8636L102.759 18.5C102.986 17.4394 103.433 16.5227 104.099 15.75C104.766 14.9697 105.626 14.3712 106.679 13.9545C107.74 13.5303 108.967 13.3182 110.361 13.3182C111.33 13.3182 112.259 13.4318 113.145 13.6591C114.039 13.8864 114.83 14.2386 115.52 14.7159C116.217 15.1932 116.766 15.8068 117.168 16.5568C117.569 17.2992 117.77 18.1894 117.77 19.2273V31H113.179V28.5795H113.043C112.762 29.125 112.387 29.6061 111.918 30.0227C111.448 30.4318 110.884 30.7538 110.224 30.9886C109.565 31.2159 108.804 31.3295 107.94 31.3295ZM109.327 27.9886C110.039 27.9886 110.668 27.8485 111.213 27.5682C111.759 27.2803 112.187 26.8939 112.497 26.4091C112.808 25.9242 112.963 25.375 112.963 24.7614V22.9091C112.812 23.0076 112.603 23.0985 112.338 23.1818C112.08 23.2576 111.789 23.3295 111.463 23.3977C111.137 23.4583 110.812 23.5152 110.486 23.5682C110.16 23.6136 109.865 23.6553 109.599 23.6932C109.031 23.7765 108.535 23.9091 108.111 24.0909C107.687 24.2727 107.357 24.5189 107.122 24.8295C106.887 25.1326 106.77 25.5114 106.77 25.9659C106.77 26.625 107.009 27.1288 107.486 27.4773C107.971 27.8182 108.584 27.9886 109.327 27.9886ZM126.366 7.72727V31H121.526V7.72727H126.366ZM130.244 31V13.5455H135.085V31H130.244ZM132.676 11.2955C131.956 11.2955 131.339 11.0568 130.824 10.5795C130.316 10.0947 130.062 9.51515 130.062 8.84091C130.062 8.17424 130.316 7.60227 130.824 7.125C131.339 6.64015 131.956 6.39773 132.676 6.39773C133.396 6.39773 134.009 6.64015 134.517 7.125C135.032 7.60227 135.29 8.17424 135.29 8.84091C135.29 9.51515 135.032 10.0947 134.517 10.5795C134.009 11.0568 133.396 11.2955 132.676 11.2955ZM143.94 31.3295C142.827 31.3295 141.834 31.1364 140.963 30.75C140.092 30.3561 139.402 29.7765 138.895 29.0114C138.395 28.2386 138.145 27.2765 138.145 26.125C138.145 25.1553 138.323 24.3409 138.679 23.6818C139.035 23.0227 139.52 22.4924 140.134 22.0909C140.747 21.6894 141.444 21.3864 142.224 21.1818C143.012 20.9773 143.838 20.8333 144.702 20.75C145.717 20.6439 146.535 20.5455 147.156 20.4545C147.777 20.3561 148.228 20.2121 148.509 20.0227C148.789 19.8333 148.929 19.553 148.929 19.1818V19.1136C148.929 18.3939 148.702 17.8371 148.247 17.4432C147.8 17.0492 147.164 16.8523 146.338 16.8523C145.467 16.8523 144.774 17.0455 144.259 17.4318C143.743 17.8106 143.402 18.2879 143.236 18.8636L138.759 18.5C138.986 17.4394 139.433 16.5227 140.099 15.75C140.766 14.9697 141.626 14.3712 142.679 13.9545C143.74 13.5303 144.967 13.3182 146.361 13.3182C147.33 13.3182 148.259 13.4318 149.145 13.6591C150.039 13.8864 150.83 14.2386 151.52 14.7159C152.217 15.1932 152.766 15.8068 153.168 16.5568C153.569 17.2992 153.77 18.1894 153.77 19.2273V31H149.179V28.5795H149.043C148.762 29.125 148.387 29.6061 147.918 30.0227C147.448 30.4318 146.884 30.7538 146.224 30.9886C145.565 31.2159 144.804 31.3295 143.94 31.3295ZM145.327 27.9886C146.039 27.9886 146.668 27.8485 147.213 27.5682C147.759 27.2803 148.187 26.8939 148.497 26.4091C148.808 25.9242 148.963 25.375 148.963 24.7614V22.9091C148.812 23.0076 148.603 23.0985 148.338 23.1818C148.08 23.2576 147.789 23.3295 147.463 23.3977C147.137 23.4583 146.812 23.5152 146.486 23.5682C146.16 23.6136 145.865 23.6553 145.599 23.6932C145.031 23.7765 144.535 23.9091 144.111 24.0909C143.687 24.2727 143.357 24.5189 143.122 24.8295C142.887 25.1326 142.77 25.5114 142.77 25.9659C142.77 26.625 143.009 27.1288 143.486 27.4773C143.971 27.8182 144.584 27.9886 145.327 27.9886ZM160.355 31.2955C159.605 31.2955 158.961 31.0303 158.423 30.5C157.893 29.9621 157.628 29.3182 157.628 28.5682C157.628 27.8258 157.893 27.1894 158.423 26.6591C158.961 26.1288 159.605 25.8636 160.355 25.8636C161.082 25.8636 161.719 26.1288 162.264 26.6591C162.81 27.1894 163.082 27.8258 163.082 28.5682C163.082 29.0682 162.954 29.5265 162.696 29.9432C162.446 30.3523 162.116 30.6818 161.707 30.9318C161.298 31.1742 160.848 31.2955 160.355 31.2955ZM182.58 15.25C182.42 14.697 182.197 14.2083 181.909 13.7841C181.621 13.3523 181.269 12.9886 180.852 12.6932C180.443 12.3902 179.973 12.1591 179.443 12C178.92 11.8409 178.341 11.7614 177.705 11.7614C176.515 11.7614 175.47 12.0568 174.568 12.6477C173.674 13.2386 172.977 14.0985 172.477 15.2273C171.977 16.3485 171.727 17.7197 171.727 19.3409C171.727 20.9621 171.973 22.3409 172.466 23.4773C172.958 24.6136 173.655 25.4811 174.557 26.0795C175.458 26.6705 176.523 26.9659 177.75 26.9659C178.864 26.9659 179.814 26.7689 180.602 26.375C181.398 25.9735 182.004 25.4091 182.42 24.6818C182.845 23.9545 183.057 23.0947 183.057 22.1023L184.057 22.25H178.057V18.5455H187.795V21.4773C187.795 23.5227 187.364 25.2803 186.5 26.75C185.636 28.2121 184.447 29.3409 182.932 30.1364C181.417 30.9242 179.682 31.3182 177.727 31.3182C175.545 31.3182 173.629 30.8371 171.977 29.875C170.326 28.9053 169.038 27.5303 168.114 25.75C167.197 23.9621 166.739 21.8409 166.739 19.3864C166.739 17.5 167.011 15.8182 167.557 14.3409C168.11 12.8561 168.883 11.5985 169.875 10.5682C170.867 9.53788 172.023 8.75379 173.341 8.21591C174.659 7.67803 176.087 7.40909 177.625 7.40909C178.943 7.40909 180.17 7.60227 181.307 7.98864C182.443 8.36742 183.451 8.9053 184.33 9.60227C185.216 10.2992 185.939 11.1288 186.5 12.0909C187.061 13.0455 187.42 14.0985 187.58 15.25H182.58ZM199.287 31.3409C197.522 31.3409 195.995 30.9659 194.707 30.2159C193.427 29.4583 192.438 28.4053 191.741 27.0568C191.045 25.7008 190.696 24.1288 190.696 22.3409C190.696 20.5379 191.045 18.9621 191.741 17.6136C192.438 16.2576 193.427 15.2045 194.707 14.4545C195.995 13.697 197.522 13.3182 199.287 13.3182C201.052 13.3182 202.575 13.697 203.855 14.4545C205.143 15.2045 206.135 16.2576 206.832 17.6136C207.529 18.9621 207.878 20.5379 207.878 22.3409C207.878 24.1288 207.529 25.7008 206.832 27.0568C206.135 28.4053 205.143 29.4583 203.855 30.2159C202.575 30.9659 201.052 31.3409 199.287 31.3409ZM199.31 27.5909C200.113 27.5909 200.783 27.3636 201.321 26.9091C201.859 26.447 202.264 25.8182 202.537 25.0227C202.817 24.2273 202.957 23.322 202.957 22.3068C202.957 21.2917 202.817 20.3864 202.537 19.5909C202.264 18.7955 201.859 18.1667 201.321 17.7045C200.783 17.2424 200.113 17.0114 199.31 17.0114C198.499 17.0114 197.817 17.2424 197.264 17.7045C196.719 18.1667 196.306 18.7955 196.026 19.5909C195.753 20.3864 195.616 21.2917 195.616 22.3068C195.616 23.322 195.753 24.2273 196.026 25.0227C196.306 25.8182 196.719 26.447 197.264 26.9091C197.817 27.3636 198.499 27.5909 199.31 27.5909ZM226.736 13.5455L220.634 31H215.179L209.077 13.5455H214.19L217.815 26.0341H217.997L221.611 13.5455H226.736Z" fill="white"/>
<path d="M0 43H4.8C6.12 43 7.2 41.925 7.2 40.6111V19.1111C7.2 17.7972 6.12 16.7222 4.8 16.7222H0V43ZM47.592 25.9911C47.856 25.3939 48 24.7489 48 24.08V21.5C48 18.8722 45.84 16.7222 43.2 16.7222H30L32.208 5.61389C32.328 5.08833 32.256 4.515 32.016 4.03722C31.464 2.96222 30.768 1.98278 29.904 1.12278L28.8 0L13.416 15.3128C12.504 16.2206 12 17.4389 12 18.705V37.4339C12 40.4917 14.52 43 17.616 43H37.08C38.76 43 40.344 42.1161 41.208 40.6828L47.592 25.9911Z" fill="white"/>
<path d="M85 43H80.2C78.88 43 77.8 44.075 77.8 45.3889V66.8889C77.8 68.2028 78.88 69.2778 80.2 69.2778H85V43ZM37.408 60.0089C37.144 60.6061 37 61.2511 37 61.92V64.5C37 67.1278 39.16 69.2778 41.8 69.2778H55L52.792 80.3861C52.672 80.9117 52.744 81.485 52.984 81.9628C53.536 83.0378 54.232 84.0172 55.096 84.8772L56.2 86L71.584 70.6872C72.496 69.7794 73 68.5611 73 67.295V48.5661C73 45.5083 70.48 43 67.384 43H47.92C46.24 43 44.656 43.8839 43.792 45.3172L37.408 60.0089Z" fill="white"/>
</svg>
