<svg width="74" height="74" viewBox="0 0 74 74" fill="none" xmlns="http://www.w3.org/2000/svg">
<path d="M35.9136 73.2355L33.4489 52.1099C28.0422 54.6846 28.3741 61.836 27.7163 66.8978C27.5498 68.179 26.6507 71.2199 27.4783 72.3188C28.6453 73.8684 34.1337 73.2355 35.9136 73.2355Z" fill="#F5C216"/>
<path d="M40.1387 51.4057L37.322 73.2355C39.2479 73.2355 44.4095 73.7883 45.898 72.5215C46.9304 71.6429 45.8759 68.4332 45.7722 67.2499C45.2382 61.1517 44.7147 55.8896 40.1387 51.4057Z" fill="#3B2EFF"/>
<path d="M45.068 49.9973C45.068 56.2669 47.6094 59.2918 51.4068 64.0811C52.2921 65.1976 53.7974 68.1044 55.3116 68.3391C56.9724 68.5964 62.304 64.1416 61.3518 62.4263C59.7318 59.508 54.4174 56.8014 51.7578 54.7949C49.6084 53.1733 47.5347 51.0964 45.068 49.9973Z" fill="#F5C216"/>
<path d="M11.267 63.0248V63.3769L18.3089 69.0104L27.587 56.6871L28.8717 49.6452C22.6329 52.4258 16.5752 58.7167 11.267 63.0248Z" fill="#3B2EFF"/>
<path d="M49.6451 44.7159L62.6726 61.9685C65.2313 60.772 67.8684 57.4887 69.0103 54.9266L56.687 45.8208L49.6451 44.7159Z" fill="#3B2EFF"/>
<path d="M10.2108 61.9685H10.5629C14.8226 57.0459 21.058 50.7063 23.5903 44.7159C17.4302 44.843 13.8813 47.6061 9.21427 51.3521C8.07023 52.2704 5.18204 53.762 4.99132 55.3387C4.74235 57.3969 8.82359 60.6752 10.2108 61.9685Z" fill="#F5C216"/>
<path d="M52.1099 40.1387V40.8429C58.2783 45.2772 65.278 46.1243 72.8834 46.1243L72.9426 37.6977L67.602 38.0438L52.1099 40.1387Z" fill="#F5C216"/>
<path d="M0 37.322L0.704192 46.4764L16.1963 44.3538L21.8298 40.4908L13.3796 39.0523L0 37.322Z" fill="#3B2EFF"/>
<path d="M51.7578 33.4489L73.5875 35.9135L72.8834 27.1112C66.6162 27.1631 55.3131 27.3985 51.7578 33.4489Z" fill="#3B2EFF"/>
<path d="M0.704191 27.1112L0 35.9135L21.4777 33.4489C18.495 27.3318 6.64442 27.1604 0.704191 27.1112Z" fill="#F5C216"/>
<path d="M49.9973 28.5196C56.0609 28.5028 59.0391 25.9293 63.7289 22.4394C65.0299 21.4713 67.9911 19.9357 68.3936 18.2488C68.7779 16.6385 64.4263 11.3709 62.7324 12.0331C59.8047 13.1778 56.6468 19.3618 54.7239 21.8298C53.1026 23.9107 50.9527 26.0526 49.9973 28.5196Z" fill="#F5C216"/>
<path d="M10.2107 11.267C8.86668 12.6713 4.97525 15.8978 5.00073 17.9429C5.02043 19.5208 8.05733 21.0505 9.15441 21.9026C11.5542 23.7666 14.1091 26.4423 16.9005 27.6679C18.9161 28.5528 21.4502 28.3563 23.5903 28.8717L18.4493 21.4777L10.2107 11.267Z" fill="#3B2EFF"/>
<path d="M54.9266 4.57721C50.6667 11.4178 45.082 15.4147 44.7159 23.9424C49.017 21.1001 52.9135 17.5762 57.0392 14.4804C58.2796 13.5496 61.0505 12.1241 61.4947 10.5451C62.047 8.58187 56.4872 5.1067 54.9266 4.57721Z" fill="#3B2EFF"/>
<path d="M28.5196 23.5903C28.5156 16.9566 24.2772 9.50825 18.9112 5.41399C17.2025 4.11031 12.174 8.35621 11.9842 10.1803C11.8216 11.7436 14.8149 13.2687 15.8442 14.0848C19.8917 17.294 24.0064 21.0747 28.5196 23.5903Z" fill="#F5C216"/>
<path d="M40.1388 21.4777C46.2722 17.9294 45.9832 6.95415 46.4764 0.70421L37.9004 0.367065L38.0261 5.63353L40.1388 21.4777Z" fill="#F5C216"/>
<path d="M27.1113 0.704192C27.4149 7.77487 27.5671 17.0721 33.449 21.8298L35.9136 0L27.1113 0.704192Z" fill="#3B2EFF"/>
</svg>
